<svg width="267" height="267" viewBox="0 0 267 267" fill="none" xmlns="http://www.w3.org/2000/svg">
<path d="M133.5 266.801C207.12 266.801 266.801 207.12 266.801 133.5C266.801 59.88 207.12 0.199219 133.5 0.199219C59.88 0.199219 0.199219 59.88 0.199219 133.5C0.199219 207.12 59.88 266.801 133.5 266.801Z" fill="#905AA1"/>
<path d="M266.48 142.351C266.32 142.138 266.16 141.925 265.947 141.711C248.032 123.849 230.169 105.933 212.254 88.0712C211.987 87.8046 211.72 87.538 211.454 87.2713C210.494 86.3649 209.428 85.6717 208.148 85.4585C207.082 85.2452 205.962 85.1919 204.842 85.1919C168.691 85.1919 132.593 85.1919 96.4419 85.1919C95.4822 85.1919 94.789 84.9253 94.0958 84.2321C89.2437 79.3266 84.3382 74.4745 79.4327 69.569C78.473 68.6092 77.4066 67.8628 76.1802 67.3295C72.8743 65.9432 69.6218 64.5036 66.3159 63.0639C64.0232 62.0508 61.7304 61.0378 59.3843 60.078C56.505 58.9049 53.6257 60.9311 53.7857 63.9704C53.839 65.1967 54.4788 66.1032 55.332 66.9563C61.997 73.568 68.6087 80.2331 75.2738 86.8448C75.807 87.3247 76.0736 87.8579 76.2335 88.6044C76.6068 90.4706 76.98 92.3368 77.3532 94.2563C79.7527 106.04 82.2054 117.771 84.6048 129.554C87.1109 141.818 89.6702 154.082 92.1763 166.345C92.6029 168.372 93.456 170.078 94.9489 171.571C99.4279 175.996 103.8 180.422 108.279 184.848C108.599 185.167 108.919 185.487 109.185 185.861C107.746 188.1 106.946 190.393 106.786 192.899C106.573 197.271 108.066 200.95 111.212 204.096C130.354 223.185 149.442 242.327 168.584 261.469C168.744 261.629 168.904 261.895 169.064 262.109C222.758 247.126 262.748 199.671 266.48 142.351Z" fill="#7F4997"/>
<path d="M120.596 179.355C112.865 179.355 106.52 185.647 106.52 193.432C106.52 201.217 112.811 207.509 120.596 207.509C128.328 207.509 134.673 201.217 134.673 193.432C134.673 185.647 128.328 179.355 120.596 179.355ZM120.596 199.671C117.184 199.671 114.358 196.898 114.358 193.432C114.358 189.966 117.13 187.194 120.596 187.194C124.062 187.194 126.835 189.966 126.835 193.432C126.781 196.845 124.009 199.671 120.596 199.671Z" fill="white"/>
<path d="M169.918 179.355C162.187 179.355 155.842 185.647 155.842 193.432C155.842 201.217 162.134 207.509 169.918 207.509C177.703 207.509 183.995 201.217 183.995 193.432C183.995 185.701 177.703 179.355 169.918 179.355ZM169.918 199.671C166.506 199.671 163.68 196.898 163.68 193.432C163.68 189.966 166.453 187.194 169.918 187.194C173.331 187.194 176.157 189.966 176.157 193.432C176.157 196.845 173.384 199.671 169.918 199.671Z" fill="white"/>
<path d="M117.131 113.185H173.438C175.624 113.185 177.383 111.425 177.383 109.239C177.383 107.053 175.624 105.293 173.438 105.293H117.131C114.945 105.293 113.186 107.053 113.186 109.239C113.186 111.425 114.945 113.185 117.131 113.185Z" fill="white"/>
<path d="M170.347 125.715H120.172C117.986 125.715 116.227 127.475 116.227 129.661C116.227 131.847 117.986 133.607 120.172 133.607H170.347C172.533 133.607 174.292 131.847 174.292 129.661C174.292 127.475 172.533 125.715 170.347 125.715Z" fill="white"/>
<path d="M211.722 87.8044C210.229 85.9915 207.989 84.9251 205.643 84.9251H83.2732L80.8205 72.9281C80.2873 70.422 78.581 68.3425 76.235 67.3294L59.0125 59.8646C57.0396 59.0115 54.6935 59.9179 53.8404 61.8908C52.9873 63.8636 53.8937 66.2097 55.8666 67.0628L73.089 74.5277L92.0711 166.772C92.8176 170.398 96.0701 173.064 99.7492 173.064H193.86C196.046 173.064 197.805 171.304 197.805 169.118C197.805 166.932 196.046 165.172 193.86 165.172H99.8025L97.5098 153.975H194.659C198.392 153.975 201.591 151.362 202.337 147.683L213.321 94.3628C213.801 92.0167 213.215 89.6706 211.722 87.8044ZM194.659 146.084H95.9101L84.9262 92.7632H205.643L194.659 146.084Z" fill="white"/>
</svg>
