<svg width="272" height="272" viewBox="0 0 272 272" fill="none" xmlns="http://www.w3.org/2000/svg">
<path d="M136 272C211.111 272 272 211.111 272 136C272 60.8893 211.111 0 136 0C60.8893 0 0 60.8893 0 136C0 211.111 60.8893 272 136 272Z" fill="url(#paint0_linear_499_348)"/>
<path d="M135.999 249.334C73.5079 249.334 22.666 198.492 22.666 136C22.666 73.5086 73.5079 22.667 135.999 22.667C198.494 22.667 249.333 73.5086 249.333 136C249.333 198.492 198.494 249.334 135.999 249.334Z" fill="url(#paint1_linear_499_348)"/>
<path opacity="0.3" d="M128.333 112.473C122.667 100.484 117 88.4943 111.334 76.5054L76.5059 76.6502C84.9464 94.5081 93.3865 112.367 101.827 130.225C108.363 121.592 117.635 115.235 128.333 112.473Z" fill="black"/>
<path opacity="0.3" d="M178.683 130.205C187.12 112.353 195.558 94.501 203.995 76.6502L169.167 76.5054C163.501 88.4926 157.836 100.48 152.17 112.468C162.87 115.225 172.144 121.576 178.683 130.205Z" fill="black"/>
<path opacity="0.3" d="M140.261 116.217C116.414 116.217 97.082 135.866 97.082 160.106C97.082 184.345 116.414 203.994 140.261 203.994C164.108 203.994 183.441 184.345 183.441 160.106C183.441 135.866 164.108 116.217 140.261 116.217ZM155.051 182.103L140.261 174.973L125.471 182.103L127.572 165.604L116.331 153.509L132.419 150.442L140.261 135.837L148.103 150.442L164.191 153.509L152.95 165.604L155.051 182.103Z" fill="black"/>
<path d="M124.083 108.223C118.417 96.2342 112.75 84.2443 107.084 72.2554L72.2559 72.4002C80.6964 90.2581 89.1365 108.117 97.577 125.975C104.113 117.342 113.385 110.985 124.083 108.223Z" fill="white"/>
<path d="M174.433 125.955C182.87 108.103 191.308 90.251 199.745 72.4002L164.917 72.2554C159.251 84.2426 153.586 96.2302 147.92 108.218C158.62 110.975 167.894 117.326 174.433 125.955Z" fill="white"/>
<path d="M136.011 111.967C112.164 111.967 92.832 131.616 92.832 155.856C92.832 180.095 112.164 199.744 136.011 199.744C159.858 199.744 179.191 180.095 179.191 155.856C179.191 131.616 159.858 111.967 136.011 111.967ZM150.801 177.853L136.011 170.723L121.221 177.853L123.322 161.354L112.081 149.259L128.169 146.192L136.011 131.587L143.853 146.192L159.941 149.259L148.7 161.354L150.801 177.853Z" fill="white"/>
<defs>
<linearGradient id="paint0_linear_499_348" x1="-1.43438e-06" y1="136" x2="272" y2="136" gradientUnits="userSpaceOnUse">
<stop stop-color="#8DC63F"/>
<stop offset="1" stop-color="#76B83F"/>
</linearGradient>
<linearGradient id="paint1_linear_499_348" x1="22.666" y1="136" x2="249.333" y2="136" gradientUnits="userSpaceOnUse">
<stop stop-color="#76B83F"/>
<stop offset="1" stop-color="#8DC63F"/>
</linearGradient>
</defs>
</svg>
