<svg width="256" height="256" viewBox="0 0 256 256" fill="none" xmlns="http://www.w3.org/2000/svg">
<path d="M132.609 208.31C128.669 210 91.5292 226 78.3592 231.08C65.1892 236.16 33.7492 165.42 46.9992 159.78C60.2492 154.14 97.6792 136.4 100.499 135.2C103.319 134 136.559 206.62 132.609 208.31Z" fill="#191919"/>
<path d="M76.9092 239.37C70.9992 239.37 64.7792 234.88 58.3792 225.97C52.3671 217.227 47.3589 207.834 43.4492 197.97C36.2992 180.33 30.5692 158.11 43.8892 152.45C52.8892 148.62 73.7692 138.87 86.2392 133.04C93.0892 129.84 96.4192 128.28 97.3792 127.87C104.379 124.87 108.629 131.96 110.379 134.99C111.959 137.66 113.969 141.43 116.379 146.19C120.899 155.19 126.279 166.91 130.769 177.42C134.139 185.32 136.819 192.11 138.509 197.05C139.345 199.381 140.033 201.762 140.569 204.18C142.149 212.04 137.729 214.86 135.749 215.7L133.669 216.59C106.839 228.1 89.1992 235.5 81.2292 238.59C79.8497 239.115 78.385 239.379 76.9092 239.37ZM51.8392 166.42C51.5192 169.98 53.0492 180.36 60.2292 196.52C67.4092 212.68 74.2192 220.94 76.9992 223C84.9992 219.84 100.739 213.25 123.809 203.36C119.609 190.36 104.729 157.54 97.8792 145.21L92.9992 147.5C80.3992 153.4 61.7092 162.14 51.8392 166.42Z" fill="#191919"/>
<path d="M132.609 208.31C128.669 210 91.5292 226 78.3592 231.08C65.1892 236.16 33.7492 165.42 46.9992 159.78C60.2492 154.14 97.6792 136.4 100.499 135.2C103.319 134 136.559 206.62 132.609 208.31Z" fill="#E83A2A"/>
<path d="M210.609 163.4C207.609 164.08 206.439 160.93 209.339 159.97C217.989 157.13 219.969 136.27 206.909 138.36C203.839 138.85 202.279 135.51 206.569 134.15C216.299 131.07 215.029 105.98 202.119 109.9C196.019 111.75 195.449 108.43 198.259 106.9C204.899 103.36 204.709 99.0399 202.409 93.1699C197.699 81.1699 180.269 85.1699 153.339 88.6999C140.999 90.3199 138.439 95.6299 143.999 101C143.185 101.248 142.329 101.324 141.484 101.224C140.639 101.124 139.823 100.85 139.089 100.42C133.469 95.9699 142.089 88.7899 128.089 54.4899C119.599 33.6399 96.9694 38.7699 99.7794 66.6099C103.219 100.69 91.2994 109.42 81.9294 133.22C70.7494 161.61 85.3794 190.66 103.929 201.06C122.479 211.46 139.929 213.06 163.729 205.25C188.259 197.25 200.009 190.7 208.929 186.57C223.659 179.73 218.999 161.48 210.609 163.4Z" fill="#191919"/>
<path d="M136.46 218.15C123.79 218.15 112.08 214.81 99.9896 208.04C77.8596 195.64 61.7996 162.39 74.4396 130.29C77.0696 123.63 79.9096 118.03 82.4396 113.09C89.2096 99.7601 94.0996 90.0901 91.7996 67.4201C89.6896 46.5701 99.5396 36.5301 108.61 34.2801C117.68 32.0301 129.38 36.5001 135.49 51.4801C141.21 65.4801 143.39 75.4801 144.24 82.6301C146.87 81.732 149.589 81.1152 152.35 80.7901C155.45 80.3901 158.42 79.9801 161.26 79.5901C172.83 78.0001 181.98 76.7501 189.57 77.2701C199.95 77.9901 206.79 82.3601 209.89 90.2701C211.776 95.0767 212.29 99.3267 211.43 103.02C215.24 104.97 218.25 108.67 219.83 113.78C221.817 120.315 221.271 127.359 218.3 133.51C221.037 135.78 222.941 138.898 223.71 142.37C224.973 148.105 224.132 154.104 221.34 159.27C223.19 161.144 224.583 163.419 225.41 165.92C228.61 175.29 225.13 187.92 212.3 193.83C210.74 194.55 209.09 195.35 207.3 196.22C194.044 202.791 180.311 208.353 166.22 212.86C155.43 216.37 145.69 218.15 136.46 218.15ZM113.12 49.7201C112.894 49.7193 112.669 49.7462 112.45 49.8001C110.05 50.4001 106.64 55.2701 107.7 65.8001C110.46 93.1701 103.77 106.36 96.6996 120.32C94.2396 125.17 91.6996 130.18 89.3496 136.14C82.9096 152.48 85.7496 181.7 107.83 194.07C124.88 203.62 139.83 204.62 161.24 197.64C174.642 193.352 187.702 188.06 200.31 181.81C202.19 180.9 203.92 180.06 205.56 179.3C208.15 178.1 209.8 176.3 210.32 174.12C210.522 173.248 210.522 172.342 210.32 171.47C208.039 171.647 205.768 171.033 203.888 169.731C202.008 168.428 200.635 166.517 200 164.32C198.61 159.32 201.46 154.24 206.64 152.44C207.77 151.5 208.58 148 208.17 146.26C202.56 147.16 197.41 143.94 196.17 138.77C195.17 134.48 197.17 128.9 203.8 126.63C204.618 125.227 205.033 123.624 205 122C205.069 120.506 204.799 119.015 204.21 117.64C193.41 120.79 189.96 113.93 189.37 112.51C187.43 107.82 189.6 102.51 194.54 99.8701C195.014 99.6299 195.463 99.3418 195.88 99.0101C195.696 98.02 195.4 97.0538 195 96.1301C194.61 95.1301 194 93.6301 188.47 93.2501C182.47 92.8401 173.67 94.0501 163.47 95.4601C160.59 95.8601 157.58 96.2701 154.47 96.6701C153.345 96.8077 152.23 97.0114 151.13 97.2801C151.675 98.3134 151.987 99.4537 152.044 100.621C152.102 101.788 151.903 102.953 151.461 104.035C151.02 105.117 150.347 106.089 149.49 106.882C148.633 107.676 147.612 108.273 146.5 108.63C144.437 109.284 142.252 109.45 140.114 109.117C137.976 108.784 135.945 107.96 134.18 106.71C129 102.61 128.93 97.3001 128.88 92.6201C128.81 86.7901 128.69 77.0301 120.75 57.5301C118.5 52.2401 115.38 49.7201 113.12 49.7201Z" fill="#191919"/>
<path d="M210.609 163.4C207.609 164.08 206.439 160.93 209.339 159.97C217.989 157.13 219.969 136.27 206.909 138.36C203.839 138.85 202.279 135.51 206.569 134.15C216.299 131.07 215.029 105.98 202.119 109.9C196.019 111.75 195.449 108.43 198.259 106.9C204.899 103.36 204.709 99.0399 202.409 93.1699C197.699 81.1699 180.269 85.1699 153.339 88.6999C140.999 90.3199 138.439 95.6299 143.999 101C143.185 101.248 142.329 101.324 141.484 101.224C140.639 101.124 139.823 100.85 139.089 100.42C133.469 95.9699 142.089 88.7899 128.089 54.4899C119.599 33.6399 96.9694 38.7699 99.7794 66.6099C103.219 100.69 91.2994 109.42 81.9294 133.22C70.7494 161.61 85.3794 190.66 103.929 201.06C122.479 211.46 139.929 213.06 163.729 205.25C188.259 197.25 200.009 190.7 208.929 186.57C223.659 179.73 218.999 161.48 210.609 163.4Z" fill="white"/>
<path d="M201.279 90.74C194.679 82.27 181.009 85.12 154.089 88.68C140.619 90.46 138.439 95.68 143.959 101.01C170.719 95.17 193.289 80.41 201.279 90.74Z" fill="#E6E6E6"/>
<path d="M106.301 5.22992C104.781 2.88992 97.6608 4.13992 97.7708 7.27992C97.7708 8.64992 102.081 25.7799 102.921 27.2799C104.041 29.2799 110.821 27.5399 111.451 25.2299C111.881 23.6499 107.131 6.49992 106.301 5.22992Z" fill="#FF5C00"/>
<path d="M71.5115 61.5399C67.8315 63.5399 70.5815 71.1299 73.6115 70.2599C74.3115 70.0599 85.5215 67.9599 86.1915 67.5099C87.7515 66.5099 86.0215 58.5099 84.0915 58.7899C83.2415 58.9199 72.1915 61.1799 71.5115 61.5399Z" fill="#FF5C00"/>
<path d="M155.701 52.81C157.821 50.99 156.481 42.56 153.841 43C152.131 43.28 143.961 45.35 142.841 46.5C140.841 48.5 142.061 56.32 145.121 55.56C147.301 55 154.411 53.92 155.701 52.81Z" fill="#FF5C00"/>
<path d="M144.471 19.5199C145.321 16.2599 138.931 12.8299 136.231 15.0799C134.481 16.5399 126.431 27.7199 126.001 29.2299C125.271 31.8099 131.061 35.3799 133.241 33.6699C134.641 32.5799 144.001 21.4699 144.471 19.5199Z" fill="#FF5C00"/>
<path d="M72.801 24.33C69.001 23 65.171 28.65 68.221 31.81C69.001 32.64 86.001 42.76 86.661 43.16C88.401 44.16 92.501 37.56 91.241 35.68C90.751 35 73.551 24.6 72.801 24.33Z" fill="#FF5C00"/>
<path d="M140 100.67C137.09 98.23 141.39 94.61 140.75 87.25L140 100.67Z" fill="white"/>
<path d="M140 104.67C139.064 104.669 138.158 104.34 137.44 103.74C133.87 100.74 135.04 96.85 135.82 94.26C136.606 92.132 136.946 89.8651 136.82 87.6C136.727 86.5392 137.059 85.4849 137.744 84.6691C138.428 83.8533 139.409 83.3429 140.47 83.25C140.995 83.2041 141.524 83.262 142.027 83.4206C142.53 83.5791 142.997 83.8352 143.401 84.1741C144.217 84.8586 144.727 85.8392 144.82 86.9C145.058 90.1689 144.63 93.4521 143.56 96.55C143.42 97.03 143.23 97.64 143.13 98.07C143.624 98.652 143.942 99.3633 144.045 100.12C144.148 100.877 144.032 101.647 143.712 102.34C143.391 103.033 142.878 103.62 142.235 104.031C141.591 104.442 140.844 104.66 140.08 104.66L140 104.67Z" fill="#191919"/>
</svg>
