<svg width="86" height="86" viewBox="0 0 86 86" fill="none" xmlns="http://www.w3.org/2000/svg">
<path d="M43 86C66.7482 86 86 66.7482 86 43C86 19.2518 66.7482 0 43 0C19.2518 0 0 19.2518 0 43C0 66.7482 19.2518 86 43 86Z" fill="#905AA1"/>
<path d="M85.8961 45.8553C85.8445 45.7865 85.7929 45.7177 85.7241 45.6489C79.9449 39.8869 74.1829 34.1077 68.4037 28.3457C68.3177 28.2597 68.2317 28.1737 68.1457 28.0877C67.8361 27.7953 67.4921 27.5717 67.0793 27.5029C66.7353 27.4341 66.3741 27.4169 66.0129 27.4169C54.3513 27.4169 42.7069 27.4169 31.0453 27.4169C30.7357 27.4169 30.5121 27.3309 30.2885 27.1073C28.7233 25.5249 27.1409 23.9597 25.5585 22.3773C25.2489 22.0677 24.9049 21.8269 24.5093 21.6549C23.4429 21.2077 22.3937 20.7433 21.3273 20.2789C20.5877 19.9521 19.8481 19.6253 19.0913 19.3157C18.1625 18.9373 17.2337 19.5909 17.2853 20.5713C17.3025 20.9669 17.5089 21.2593 17.7841 21.5345C19.9341 23.6673 22.0669 25.8173 24.2169 27.9501C24.3889 28.1049 24.4749 28.2769 24.5265 28.5177C24.6469 29.1197 24.7673 29.7217 24.8877 30.3409C25.6617 34.1421 26.4529 37.9261 27.2269 41.7273C28.0353 45.6833 28.8609 49.6393 29.6693 53.5953C29.8069 54.2489 30.0821 54.7993 30.5637 55.2809C32.0085 56.7085 33.4189 58.1361 34.8637 59.5637C34.9669 59.6669 35.0701 59.7701 35.1561 59.8905C34.6917 60.6129 34.4337 61.3525 34.3821 62.1609C34.3133 63.5713 34.7949 64.7581 35.8097 65.7729C41.9845 71.9305 48.1421 78.1053 54.3169 84.2801C54.3685 84.3317 54.4201 84.4177 54.4717 84.4865C71.7921 79.6533 84.6921 64.3453 85.8961 45.8553Z" fill="#7F4997"/>
<path d="M38.8377 57.792C36.3437 57.792 34.2969 59.8216 34.2969 62.3328C34.2969 64.844 36.3265 66.8736 38.8377 66.8736C41.3317 66.8736 43.3785 64.844 43.3785 62.3328C43.3785 59.8216 41.3317 57.792 38.8377 57.792ZM38.8377 64.3452C37.7369 64.3452 36.8253 63.4508 36.8253 62.3328C36.8253 61.2148 37.7197 60.3204 38.8377 60.3204C39.9557 60.3204 40.8501 61.2148 40.8501 62.3328C40.8329 63.4336 39.9385 64.3452 38.8377 64.3452Z" fill="white"/>
<path d="M54.7498 57.792C52.2558 57.792 50.209 59.8216 50.209 62.3328C50.209 64.844 52.2386 66.8736 54.7498 66.8736C57.261 66.8736 59.2906 64.844 59.2906 62.3328C59.2906 59.8388 57.261 57.792 54.7498 57.792ZM54.7498 64.3452C53.649 64.3452 52.7374 63.4508 52.7374 62.3328C52.7374 61.2148 53.6318 60.3204 54.7498 60.3204C55.8506 60.3204 56.7622 61.2148 56.7622 62.3328C56.7622 63.4336 55.8678 64.3452 54.7498 64.3452Z" fill="white"/>
<path d="M37.7201 36.4467H55.8833C56.5885 36.4467 57.1561 35.8791 57.1561 35.1739C57.1561 34.4687 56.5885 33.9011 55.8833 33.9011H37.7201C37.0149 33.9011 36.4473 34.4687 36.4473 35.1739C36.4473 35.8791 37.0149 36.4467 37.7201 36.4467Z" fill="white"/>
<path d="M54.8877 40.4888H38.7025C37.9973 40.4888 37.4297 41.0564 37.4297 41.7616C37.4297 42.4668 37.9973 43.0344 38.7025 43.0344H54.8877C55.5929 43.0344 56.1605 42.4668 56.1605 41.7616C56.1605 41.0564 55.5929 40.4888 54.8877 40.4888Z" fill="white"/>
<path d="M68.2339 28.2596C67.7523 27.6748 67.0299 27.3308 66.2731 27.3308H26.7991L26.0079 23.4608C25.8359 22.6524 25.2855 21.9816 24.5287 21.6548L18.9731 19.2468C18.3367 18.9716 17.5799 19.264 17.3047 19.9004C17.0295 20.5368 17.3219 21.2936 17.9583 21.5688L23.5139 23.9768L29.6371 53.7328C29.8779 54.9024 30.9271 55.7624 32.1139 55.7624H62.4719C63.1771 55.7624 63.7447 55.1948 63.7447 54.4896C63.7447 53.7844 63.1771 53.2168 62.4719 53.2168H32.1311L31.3915 49.6048H62.7299C63.9339 49.6048 64.9659 48.762 65.2067 47.5752L68.7499 30.3752C68.9047 29.6184 68.7155 28.8616 68.2339 28.2596ZM62.7299 47.0592H30.8755L27.3323 29.8592H66.2731L62.7299 47.0592Z" fill="white"/>
</svg>
