<svg width="225" height="245" viewBox="0 0 225 245" fill="none" xmlns="http://www.w3.org/2000/svg">
<path d="M105.673 5.24375L75.757 21.1055C75.1547 21.507 74.7531 21.7078 74.1508 22.3102L65.9187 30.743C65.1156 31.5461 63.9109 32.1484 62.7063 32.55L49.2539 35.5617C48.6516 35.7625 48.25 35.9633 47.6477 36.1641L11.507 55.4391C6.28672 58.25 3.07422 63.6711 3.07422 69.6945V169.684C3.07422 175.305 6.08594 180.526 10.9047 183.538L105.071 239.355C110.091 242.366 116.516 242.366 121.535 239.355L214.095 183.538C218.914 180.526 221.926 175.305 221.926 169.684V69.4937C221.926 63.6711 218.713 58.25 213.493 55.4391L120.933 5.24375C116.114 2.63359 110.492 2.63359 105.673 5.24375Z" fill="#D6AB7F"/>
<path d="M113.302 243.973C109.889 243.973 106.677 243.17 103.866 241.363L9.69922 185.545C4.07734 182.132 0.664062 176.109 0.664062 169.483V69.4938C0.664062 62.6672 4.47891 56.2422 10.5023 53.0297L46.643 33.7547C47.2453 33.3532 48.0484 33.1524 48.8516 32.9516L62.3039 29.9399C63.107 29.7391 63.7094 29.3375 64.3117 28.936L72.5437 20.5032C73.1461 19.9008 73.9492 19.2985 74.7523 18.8969L104.468 3.0352C109.889 0.224268 116.716 0.224268 122.137 3.0352L214.697 53.2305C220.72 56.443 224.334 62.6672 224.334 69.4938V169.684C224.334 176.109 220.921 182.333 215.299 185.545L122.739 241.363C119.928 243.17 116.716 243.973 113.302 243.973ZM113.302 5.84614C111.094 5.84614 108.885 6.44849 106.877 7.45239L76.9609 23.3141C76.5594 23.5149 76.3586 23.7157 75.957 24.1172L67.725 32.5501C66.5203 33.7547 64.9141 34.5579 63.3078 34.9594L49.8555 37.9711C49.4539 37.9711 49.2531 38.1719 48.8516 38.3727L12.7109 57.6477C8.29375 60.0571 5.48281 64.675 5.48281 69.6946V169.684C5.48281 174.502 8.09297 178.92 12.1086 181.329L106.275 237.146C110.491 239.556 116.113 239.556 120.129 237.146L212.89 181.329C216.905 178.92 219.516 174.502 219.516 169.684V69.4938C219.516 64.4743 216.705 59.8563 212.488 57.6477L119.928 7.45239C117.72 6.2477 115.511 5.84614 113.302 5.84614Z" fill="#62355C"/>
<path d="M113.303 119.087C110.292 119.087 107.28 118.284 104.469 116.878L6.48767 64.4743C5.28299 63.872 4.88142 62.2657 5.48377 61.061C6.08611 59.8563 7.69236 59.4548 8.89705 60.0571L106.878 112.461C110.894 114.67 115.713 114.67 119.728 112.461L218.513 59.0532C219.717 58.4509 221.324 58.8524 221.926 60.0571C222.528 61.2618 222.127 62.8681 220.922 63.4704L122.138 116.878C119.327 118.284 116.315 119.087 113.303 119.087Z" fill="#62355C"/>
<path d="M48.6504 35.5618L146.832 91.5797C151.852 94.3907 154.864 99.8118 154.864 105.634V115.272C154.864 117.681 157.474 119.288 159.682 118.083L178.757 107.642C180.764 106.438 182.17 104.43 182.17 102.02V90.7766C182.17 84.954 178.957 79.5329 173.938 76.7219L74.9527 21.5071L48.6504 35.5618Z" fill="white"/>
<g opacity="0.2">
<path d="M113.303 244.174L220.319 179.723C221.323 179.12 221.925 178.116 221.925 176.912V65.4782C221.925 62.868 219.114 61.2618 216.906 62.4665L113.303 118.685V244.174Z" fill="#593055"/>
</g>
<path d="M113.302 243.571C111.896 243.571 110.893 242.367 110.893 241.162V118.685C110.893 117.28 112.097 116.276 113.302 116.276C114.507 116.276 115.711 117.481 115.711 118.685V240.961C115.912 242.367 114.707 243.571 113.302 243.571Z" fill="#62355C"/>
<path d="M48.6504 35.5617L73.9488 22.1094L48.6504 35.5617Z" fill="white"/>
<path d="M158.077 120.894C154.864 120.894 152.254 118.284 152.254 115.071V105.434C152.254 100.615 149.644 95.9969 145.428 93.5875L47.2457 37.7704C46.4426 37.3688 46.041 36.5657 46.041 35.5618C46.041 34.5579 46.6434 33.7547 47.4465 33.3532L73.7488 19.2985C74.552 18.8969 75.3551 18.8969 76.1582 19.2985L174.943 74.5133C180.765 77.7258 184.58 83.9501 184.58 90.7766V102.02C184.58 105.233 182.773 108.245 179.962 109.851L160.888 120.291C160.085 120.693 159.081 120.894 158.077 120.894ZM53.6707 35.7625L148.038 89.3711C153.861 92.5836 157.475 98.8079 157.475 105.434V115.071C157.475 115.473 157.876 115.874 158.278 115.874C158.479 115.874 158.479 115.874 158.679 115.874L177.754 105.434C178.958 104.831 179.761 103.426 179.761 102.02V90.7766C179.761 85.7571 177.151 81.3399 172.734 78.9305L74.9535 24.5188L53.6707 35.7625Z" fill="#62355C"/>
</svg>
